<svg width="338" height="85" viewBox="0 0 338 85" fill="none" xmlns="http://www.w3.org/2000/svg">
<g clip-path="url(#clip0_4_32)">
<path d="M119.922 9.125H134.078V53.1875C134.078 68.0469 122.781 77.9844 105.953 77.9375C89.0781 77.9844 77.9219 68.0469 77.9219 53.1875V9.125H91.9844V52.0625C92.0312 59.8906 97.5625 65.5156 105.953 65.5625C114.438 65.5156 119.969 59.8906 119.922 52.0625V9.125Z" fill="#F1F1F1"/>
<path d="M226.969 76H203.062V8.125H227.25C247.688 8.125 260.203 20.8281 260.156 41.9688C260.203 63.2031 247.688 76 226.969 76ZM217.125 63.9062H226.406C239.344 63.9062 246.094 57.2031 246.094 41.9688C246.094 26.875 239.344 20.2188 226.5 20.2188H217.125V63.9062Z" fill="#F1F1F1"/>
<path d="M71 13.5947L0 84.1017H48.3119C60.6452 71.7683 86.9119 45.6016 93.3119 39.6016C99.7119 33.6016 113.333 31.7683 119 31.6016H246L277.5 0.10169C223.5 -0.231643 111.5 0.294689 99.5 1.09469C87.5 1.89469 75.5 9.76136 71 13.5947Z" stroke="#FF0404" stroke-width="3"/>
<path d="M96.5 44.1599L55.5 84.66H100C118 66.16 117 68.16 122.5 66.6601H211L239.5 37.16C204.084 36.9618 113.115 36.1381 121 36.1598C122 36.1625 106.5 35.6598 96.5 44.1599Z" stroke="#FF0404" stroke-width="3"/>
<path d="M200 84.6599L284.5 0.159912H337.5L253.5 84.6599H200Z" stroke="#FF0404" stroke-width="3"/>
<path d="M176.031 9.125V77H161.969V9.125H176.031Z" fill="#F1F1F1"/>
<path d="M50.6562 28.9688C48.7344 22.5938 43.625 18.7031 36.2188 18.6562C25.7188 18.7031 18.5938 26.7188 18.5938 40.9688C18.5938 55.3125 25.4844 63.4219 36.3125 63.4688C46.0156 63.4219 51.7812 57.9375 51.9688 49.4062H37.25V38.8125H65.5625V47.25C65.5625 65.0625 53.3281 75.9375 36.2188 75.9375C17.1875 75.9375 4.25 62.625 4.25 41.1562C4.25 19.125 18.0312 6.1875 35.9375 6.1875C51.2656 6.1875 63.0312 15.6094 64.9062 28.9688H50.6562Z" fill="#F1F1F1"/>
<path d="M279.453 75V7.125H325.016V18.75H293.516V35.25H322.672V46.875H293.516V63.375H325.109V75H279.453Z" fill="#F1F1F1"/>
</g>
<defs>
<clipPath id="clip0_4_32">
<rect width="338" height="85" fill="white"/>
</clipPath>
</defs>
</svg>
